HIERARCHY
ROOT hip
{
  OFFSET 0 0 0
  CHANNELS 6 Xposition Yposition Zposition Zrotation Yrotation Xrotation
  JOINT abdomen
  {
    OFFSET 0 20.6881 -0.73152
    CHANNELS 3 Zrotation Xrotation Yrotation
    JOINT chest
    {
      OFFSET 0 11.7043 -0.48768
      CHANNELS 3 Zrotation Xrotation Yrotation
      JOINT neck
      {
        OFFSET 0 22.1894 -2.19456
        CHANNELS 3 Zrotation Xrotation Yrotation
        JOINT head
        {
          OFFSET -0.24384 7.07133 1.2192
          CHANNELS 3 Zrotation Xrotation Yrotation
          JOINT leftEye
          {
            OFFSET 4.14528 8.04674 8.04672
            CHANNELS 3 Zrotation Xrotation Yrotation
            End Site
            {
              OFFSET 1 0 0
            }
          }
          JOINT rightEye
          {
            OFFSET -3.6576 8.04674 8.04672
            CHANNELS 3 Zrotation Xrotation Yrotation
            End Site
            {
              OFFSET 1 0 0
            }
          }
        }
      }
      JOINT rCollar
      {
        OFFSET -2.68224 19.2634 -4.8768
        CHANNELS 3 Zrotation Xrotation Yrotation
        JOINT rShldr
        {
          OFFSET -8.77824 -1.95073 1.46304
          CHANNELS 3 Zrotation Xrotation Yrotation
          JOINT rForeArm
          {
            OFFSET -28.1742 -1.7115 0.48768
            CHANNELS 3 Zrotation Xrotation Yrotation
            JOINT rHand
            {
              OFFSET -22.5879 0.773209 7.07136
              CHANNELS 3 Zrotation Xrotation Yrotation
              JOINT rThumb1
              {
                OFFSET -1.2192 -0.487915 3.41376
                CHANNELS 3 Zrotation Xrotation Yrotation
                JOINT rThumb2
                {
                  OFFSET -3.37035 -0.52449 3.41376
                  CHANNELS 3 Zrotation Xrotation Yrotation
                  End Site
                  {
                    OFFSET -1.78271 -1.18214 1.43049
                  }
                }
              }
              JOINT rIndex1
              {
                OFFSET -7.75947 0.938293 5.60832
                CHANNELS 3 Zrotation Xrotation Yrotation
                JOINT rIndex2
                {
                  OFFSET -2.54057 -0.884171 1.56538
                  CHANNELS 3 Zrotation Xrotation Yrotation
                  End Site
                  {
                    OFFSET -1.62519 -0.234802 1.16502
                  }
                }
              }
              JOINT rMid1
              {
                OFFSET -8.24714 1.18213 3.41376
                CHANNELS 3 Zrotation Xrotation Yrotation
                JOINT rMid2
                {
                  OFFSET -3.10165 -0.590103 1.0647
                  CHANNELS 3 Zrotation Xrotation Yrotation
                  End Site
                  {
                    OFFSET -2.48547 -0.328903 0.83742
                  }
                }
              }
              JOINT rRing1
              {
                OFFSET -8.82822 0.546677 1.51678
                CHANNELS 3 Zrotation Xrotation Yrotation
                JOINT rRing2
                {
                  OFFSET -2.60934 -0.819778 -0.0198488
                  CHANNELS 3 Zrotation Xrotation Yrotation
                  End Site
                  {
                    OFFSET -2.33842 -0.294052 0.168128
                  }
                }
              }
              JOINT rPinky1
              {
                OFFSET -8.27202 -0.0477905 -0.4584
                CHANNELS 3 Zrotation Xrotation Yrotation
                JOINT rPinky2
                {
                  OFFSET -1.82734 -0.647385 -0.700984
                  CHANNELS 3 Zrotation Xrotation Yrotation
                  End Site
                  {
                    OFFSET -1.69225 -0.51767 -0.607171
                  }
                }
              }
            }
          }
        }
      }
      JOINT lCollar
      {
        OFFSET 2.68224 19.2634 -4.8768
        CHANNELS 3 Zrotation Xrotation Yrotation
        JOINT lShldr
        {
          OFFSET 8.77824 -1.95073 1.46304
          CHANNELS 3 Zrotation Xrotation Yrotation
          JOINT lForeArm
          {
            OFFSET 28.1742 -1.7115 0.48768
            CHANNELS 3 Zrotation Xrotation Yrotation
            JOINT lHand
            {
              OFFSET 22.5879 0.773209 7.07136
              CHANNELS 3 Zrotation Xrotation Yrotation
              JOINT lThumb1
              {
                OFFSET 1.2192 -0.487915 3.41376
                CHANNELS 3 Zrotation Xrotation Yrotation
                JOINT lThumb2
                {
                  OFFSET 3.37035 -0.52449 3.41376
                  CHANNELS 3 Zrotation Xrotation Yrotation
                  End Site
                  {
                    OFFSET 1.78271 -1.18214 1.43049
                  }
                }
              }
              JOINT lIndex1
              {
                OFFSET 7.75947 0.938293 5.60832
                CHANNELS 3 Zrotation Xrotation Yrotation
                JOINT lIndex2
                {
                  OFFSET 2.54057 -0.884171 1.56538
                  CHANNELS 3 Zrotation Xrotation Yrotation
                  End Site
                  {
                    OFFSET 1.62519 -0.234802 1.16502
                  }
                }
              }
              JOINT lMid1
              {
                OFFSET 8.24714 1.18213 3.41376
                CHANNELS 3 Zrotation Xrotation Yrotation
                JOINT lMid2
                {
                  OFFSET 3.10165 -0.590103 1.0647
                  CHANNELS 3 Zrotation Xrotation Yrotation
                  End Site
                  {
                    OFFSET 2.48547 -0.328903 0.83742
                  }
                }
              }
              JOINT lRing1
              {
                OFFSET 8.82822 0.546677 1.51678
                CHANNELS 3 Zrotation Xrotation Yrotation
                JOINT lRing2
                {
                  OFFSET 2.60934 -0.819778 -0.0198488
                  CHANNELS 3 Zrotation Xrotation Yrotation
                  End Site
                  {
                    OFFSET 2.33842 -0.294052 0.168128
                  }
                }
              }
              JOINT lPinky1
              {
                OFFSET 8.27202 -0.0477905 -0.4584
                CHANNELS 3 Zrotation Xrotation Yrotation
                JOINT lPinky2
                {
                  OFFSET 1.82734 -0.647385 -0.700984
                  CHANNELS 3 Zrotation Xrotation Yrotation
                  End Site
                  {
                    OFFSET 1.69225 -0.51767 -0.607171
                  }
                }
              }
            }
          }
        }
      }
    }
  }
  JOINT rButtock
  {
    OFFSET -8.77824 4.35084 1.2192
    CHANNELS 3 Zrotation Xrotation Yrotation
    JOINT rThigh
    {
      OFFSET 0 -1.70687 -2.19456
      CHANNELS 3 Zrotation Xrotation Yrotation
      JOINT rShin
      {
        OFFSET 0 -36.8199 0.73152
        CHANNELS 3 Zrotation Xrotation Yrotation
        JOINT rFoot
        {
          OFFSET 0.73152 -45.1104 -5.12064
          CHANNELS 3 Zrotation Xrotation Yrotation
          End Site
          {
            OFFSET -1.1221 -3.69964 12.103
          }
        }
      }
    }
  }
  JOINT lButtock
  {
    OFFSET 8.77824 4.35084 1.2192
    CHANNELS 3 Zrotation Xrotation Yrotation
    JOINT lThigh
    {
      OFFSET 0 -1.70687 -2.19456
      CHANNELS 3 Zrotation Xrotation Yrotation
      JOINT lShin
      {
        OFFSET 0 -36.8199 0.73152
        CHANNELS 3 Zrotation Xrotation Yrotation
        JOINT lFoot
        {
          OFFSET -0.73152 -45.1104 -5.12064
          CHANNELS 3 Zrotation Xrotation Yrotation
          End Site
          {
            OFFSET 1.1221 -3.69964 12.103
          }
        }
      }
    }
  }
}
MOTION
Frames:	4
Frame Time:	0.00833333
-188.925 74.7105 -53.963 0.0 0.0 0.0 -3.13118 0.00208552 -0.0845024 -0.863223 0.0181965 -0.14933 -1.84819e-13 -7.95139e-16 -7.95139e-16 -5.53156e-13 -6.36111e-15 -2.43356e-15 -0.0 0.0 0.0 -0.0 0.0 0.0 -9.25908e-14 -4.34453e-16 -9.93923e-17 -1.93621e-12 -9.18758e-15 -1.41137e-14 -3.33229e-11 9.70685e-12 1.30403e-13 -3.81998e-10 -1.16215e-11 -2.29954e-12 -9.00949e-10 -4.15179e-12 -4.5959e-12 -1.5559e-09 -7.16897e-12 -7.91799e-12 -9.00944e-10 -4.14903e-12 -4.60862e-12 7.73091 5.47488 0.417314 -9.0095e-10 -4.15162e-12 -4.60226e-12 2.90554 0.965183 0.102902 -9.00941e-10 -4.15162e-12 -4.59749e-12 10.2786 0.731801 0.0259123 -9.00955e-10 -4.14864e-12 -4.58954e-12 2.22167 -0.733487 -0.20892 -9.2782e-14 -4.35618e-16 -5.96354e-16 -1.93805e-12 -8.41108e-15 -1.5704e-14 -3.34215e-11 -1.0269e-11 1.46306e-13 -3.81882e-10 8.39475e-12 -2.29e-12 -9.00919e-10 -4.07521e-12 -4.5959e-12 -1.55584e-09 -7.04493e-12 -7.89811e-12 -9.00922e-10 -4.07389e-12 -4.58e-12 -7.73091 5.47488 -0.417314 -9.00918e-10 -4.07528e-12 -4.59908e-12 -2.90554 0.965183 -0.102902 -9.00927e-10 -4.07489e-12 -4.59431e-12 -10.2786 0.731801 -0.0259123 -9.0091e-10 -4.0723e-12 -4.60226e-12 -2.22167 -0.733487 0.20892 -2.03217e-16 0.0 -3.88251e-19 -1.91904 -1.93503 0.0146288 -0.00849878 -2.07867 -0.0697448 -0.458392 4.00011 0.132418 2.03217e-16 0.0 3.88251e-19 -2.83848 -9.32623 0.322376 -0.0090233 11.3078 -0.235065 0.527621 -1.99507 -0.0183874
-183.311 71.8491 -62.8266 47.9301 69.5139 51.5379 -8.03249 7.17848 -4.13354 1.56723 -0.558703 -1.50637 -3.39688 3.22849 -0.695059 6.79788 -13.774 1.97412 -0.0 0.0 0.0 -0.0 0.0 0.0 1.999e-13 -4.54628e-13 -1.74929e-13 20.1879 -1.79663 0.530129 -25.8466 -23.5825 14.1676 0.144944 -8.60268 -1.16272 4.41267e-11 9.67513e-09 -1.11923e-09 1.01094e-10 1.6671e-08 -1.91147e-09 4.41323e-11 9.67514e-09 -1.11924e-09 7.73091 5.47488 0.417314 4.41258e-11 9.67513e-09 -1.11923e-09 2.90554 0.965183 0.102902 4.41338e-11 9.67514e-09 -1.11923e-09 10.2786 0.731801 0.0259123 4.41205e-11 9.67514e-09 -1.11922e-09 2.22167 -0.733487 -0.20892 1.99761e-13 -4.54623e-13 -1.75315e-13 -21.9033 9.75358 -2.10242 17.1015 -14.5693 -14.9861 -0.0259152 -3.57216 0.498516 -8.29145e-10 -1.44173e-09 1.18664e-09 -1.43834e-09 -2.48979e-09 2.04296e-09 -8.29146e-10 -1.44173e-09 1.18665e-09 -7.73091 5.47488 -0.417314 -8.29143e-10 -1.44173e-09 1.18664e-09 -2.90554 0.965183 -0.102902 -8.2915e-10 -1.44173e-09 1.18664e-09 -10.2786 0.731801 -0.0259123 -8.29138e-10 -1.44173e-09 1.18663e-09 -2.22167 -0.733487 0.20892 -2.03217e-16 0.0 -3.88251e-19 -1.76848 -17.8292 0.25989 0.124882 24.0213 0.253185 -0.830541 2.80453 -3.44516 2.03217e-16 0.0 3.88251e-19 -2.0474 -7.4044 4.03727 -0.179973 20.0083 -0.589517 0.50644 -1.79094 -3.73727
-179.666 72.2795 -61.4151 46.3274 69.0456 50.5144 -12.0957 14.7306 -8.60716 4.08604 -1.18724 -2.93832 -6.89987 6.67898 -1.45966 15.2285 -28.3423 4.47644 -0.0 0.0 0.0 -0.0 0.0 0.0 5.20349e-13 -9.62016e-13 -3.60841e-13 41.5239 -3.87829 1.07405 -36.9466 -43.0121 37.9263 -0.103907 -17.866 -2.50923 1.03954e-09 2.04764e-08 -2.40543e-09 1.84831e-09 3.52874e-08 -4.10971e-09 1.03954e-09 2.04764e-08 -2.40545e-09 7.73091 5.47488 0.417314 1.03954e-09 2.04764e-08 -2.40543e-09 2.90554 0.965183 0.102902 1.03955e-09 2.04764e-08 -2.40544e-09 10.2786 0.731801 0.0259123 1.03953e-09 2.04764e-08 -2.40542e-09 2.22167 -0.733487 -0.20892 5.20267e-13 -9.62004e-13 -3.61108e-13 -44.256 19.9421 -4.60431 26.4058 -26.4025 -33.7208 0.0147883 -7.34813 1.03208 -7.73755e-10 -3.07712e-09 2.52998e-09 -1.35015e-09 -5.31438e-09 4.35575e-09 -7.73754e-10 -3.07712e-09 2.52998e-09 -7.73091 5.47488 -0.417314 -7.73753e-10 -3.07712e-09 2.52997e-09 -2.90554 0.965183 -0.102902 -7.73756e-10 -3.07712e-09 2.52997e-09 -10.2786 0.731801 -0.0259123 -7.73749e-10 -3.07712e-09 2.52996e-09 -2.22167 -0.733487 0.20892 -2.03217e-16 0.0 -3.88251e-19 -1.46441 -34.6037 0.560819 -0.227091 51.8961 0.890826 -1.39268 1.55242 -7.28065 2.03217e-16 0.0 3.88251e-19 -1.40938 -5.56351 8.03823 -0.225755 29.4429 -1.02321 0.488492 -1.68236 -7.86645
-176.066 72.6793 -60.1462 45.3169 68.3229 50.1721 -14.633 21.0812 -13.0194 6.3462 -1.70844 -4.2221 -9.95282 9.67973 -2.11195 24.0229 -41.0922 7.64197 -0.0 0.0 0.0 -0.0 0.0 0.0 7.84882e-13 -1.36302e-12 -5.24589e-13 60.6637 -5.38805 1.59666 -31.2068 -48.0062 69.7766 -0.710114 -25.7631 -3.83013 1.93428e-09 2.90337e-08 -3.34849e-09 3.41509e-09 5.00273e-08 -5.71856e-09 1.93428e-09 2.90337e-08 -3.34851e-09 7.73091 5.47488 0.417314 1.93428e-09 2.90337e-08 -3.34849e-09 2.90554 0.965183 0.102902 1.93428e-09 2.90337e-08 -3.3485e-09 10.2786 0.731801 0.0259123 1.93427e-09 2.90337e-08 -3.34848e-09 2.22167 -0.733487 -0.20892 7.84847e-13 -1.363e-12 -5.24753e-13 -63.3046 29.0913 -7.1178 28.1627 -30.9757 -53.3758 0.11153 -10.7132 1.51913 -6.85598e-10 -4.31704e-09 3.56912e-09 -1.20333e-09 -7.45527e-09 6.14467e-09 -6.85594e-10 -4.31704e-09 3.56912e-09 -7.73091 5.47488 -0.417314 -6.85594e-10 -4.31704e-09 3.56912e-09 -2.90554 0.965183 -0.102902 -6.85595e-10 -4.31704e-09 3.56911e-09 -10.2786 0.731801 -0.0259123 -6.85592e-10 -4.31704e-09 3.5691e-09 -2.22167 -0.733487 0.20892 -2.03217e-16 0.0 -3.88251e-19 -0.866894 -49.6127 1.10041 -2.69781 76.1973 3.49426 -2.02088 0.421281 -10.5876 2.03217e-16 0.0 3.88251e-19 -1.21029 -3.544 11.3965 -0.116498 37.4023 -1.51166 0.543584 -1.3677 -11.1728
